<svg width="70" height="70" viewBox="0 0 70 70" fill="none" xmlns="http://www.w3.org/2000/svg">
<g clip-path="url(#clip0_85_87)">
<path d="M35 0C15.668 0 0 15.668 0 35C0 54.332 15.668 70 35 70C54.332 70 70 54.332 70 35C70 15.668 54.332 0 35 0ZM25.2109 49.6426H18.3887V27.8086H25.2109V49.6426ZM21.6152 25.0742H21.5605C19.0859 25.0742 17.4863 23.4063 17.4863 21.2871C17.4863 19.127 19.1406 17.5 21.6562 17.5C24.1719 17.5 25.7168 19.127 25.7715 21.2871C25.7852 23.3926 24.1855 25.0742 21.6152 25.0742ZM52.5 49.6426H44.7617V38.3496C44.7617 35.3965 43.5586 33.373 40.8926 33.373C38.8555 33.373 37.7207 34.7402 37.2012 36.0527C37.0098 36.5176 37.0371 37.1738 37.0371 37.8438V49.6426H29.3672C29.3672 49.6426 29.4629 29.627 29.3672 27.8086H37.0371V31.2402C37.4883 29.7363 39.9355 27.6035 43.8457 27.6035C48.6992 27.6035 52.5 30.748 52.5 37.502V49.6426Z" fill="#1A1A1A"/>
</g>
<defs>
<clipPath id="clip0_85_87">
<rect width="70" height="70" fill="white"/>
</clipPath>
</defs>
</svg>
