<svg width="40" height="40" viewBox="0 0 40 40" fill="none" xmlns="http://www.w3.org/2000/svg">
<g clip-path="url(#clip0_61_41)">
<path d="M19.3334 21.6667C20.0491 22.6236 20.9623 23.4153 22.011 23.9883C23.0596 24.5612 24.2192 24.9019 25.4111 24.9872C26.603 25.0726 27.7994 24.9006 28.919 24.483C30.0385 24.0653 31.0552 23.4118 31.9 22.5667L36.9 17.5667C38.418 15.995 39.258 13.89 39.239 11.705C39.22 9.52004 38.3436 7.42994 36.7985 5.88487C35.2535 4.3398 33.1634 3.46339 30.9784 3.44441C28.7934 3.42542 26.6884 4.26537 25.1167 5.78336L22.25 8.63336" stroke="#1A1A1A" stroke-width="2" stroke-linecap="round" stroke-linejoin="round"/>
<path d="M23.3334 18.3333C22.6176 17.3764 21.7044 16.5847 20.6558 16.0117C19.6071 15.4388 18.4475 15.0981 17.2556 15.0127C16.0637 14.9274 14.8674 15.0994 13.7478 15.517C12.6282 15.9346 11.6115 16.5882 10.7667 17.4333L5.76669 22.4333C4.24871 24.005 3.40876 26.11 3.42774 28.295C3.44673 30.48 4.32314 32.5701 5.86821 34.1151C7.41327 35.6602 9.50338 36.5366 11.6884 36.5556C13.8733 36.5746 15.9783 35.7346 17.55 34.2166L20.4 31.3666" stroke="#1A1A1A" stroke-width="2" stroke-linecap="round" stroke-linejoin="round"/>
</g>
<defs>
<clipPath id="clip0_61_41">
<rect width="40" height="40" fill="white"/>
</clipPath>
</defs>
</svg>
