<svg width="70" height="70" viewBox="0 0 70 70" fill="none" xmlns="http://www.w3.org/2000/svg">
<path d="M37.1875 0C19.0312 0 4.375 14.6562 4.375 32.8125C4.375 40.25 6.78125 47.25 11.375 52.9375L6.78125 66.9375C6.5625 67.8125 6.78125 68.6875 7.4375 69.3438C7.65625 69.7812 8.3125 70 8.75 70C8.96875 70 9.40625 70 9.625 69.7812L24.7188 63C28.6562 64.75 32.8125 65.625 37.1875 65.625C55.3438 65.625 70 50.9688 70 32.8125C70 14.6562 55.3438 0 37.1875 0ZM56.2188 44.8438C55.3438 47.4688 52.0625 49.6562 49.2188 50.0938C48.5625 50.3125 47.9062 50.3125 47.0312 50.3125C45.2812 50.3125 42.6562 49.875 38.0625 47.9062C32.8125 45.7188 27.5625 41.125 23.4062 35.2188V35C22.0938 33.0312 19.6875 29.3125 19.6875 25.375C19.6875 20.5625 22.0938 18.1562 22.9688 17.0625C24.0625 15.9688 25.5938 15.3125 27.3438 15.3125C27.7812 15.3125 28 15.3125 28.4375 15.3125C29.9688 15.3125 31.0625 15.75 32.1562 17.9375L33.0312 19.6875C33.6875 21.4375 34.5625 23.4062 34.7812 23.625C35.4375 24.9375 35.4375 26.0312 34.7812 27.125C34.5625 27.7812 34.125 28.2188 33.6875 28.6562C33.4688 29.0938 33.25 29.3125 33.0312 29.3125C32.8125 29.5312 32.8125 29.5312 32.5938 29.75C33.25 30.8438 34.5625 32.8125 36.3125 34.3438C38.9375 36.75 40.9062 37.4062 42 37.8438C42.4375 37.4062 42.875 36.5312 43.5312 35.875L43.75 35.4375C44.8438 33.9062 46.5938 33.4688 48.3438 34.125C49.2188 34.5625 54.0312 36.75 54.0312 36.75L54.4688 36.9688C55.125 37.4062 56 37.625 56.4375 38.5C57.3125 40.4688 56.6562 43.3125 56.2188 44.8438Z" fill="#1A1A1A"/>
</svg>
